<svg width="800" height="600" viewBox="0 0 800 600" fill="none" xmlns="http://www.w3.org/2000/svg">
<rect width="800" height="600" fill="white"/>
<path d="M653.75 22.0001C673.77 22.0001 690 37.5487 690 56.729V456.112C690 475.292 673.77 490.841 653.75 490.841H355.944L235.689 575.407C223.789 583.771 206.995 575.726 206.838 561.587L206.059 490.841H146.25C126.23 490.841 110 475.292 110 456.112V56.729C110 37.5487 126.23 22.0001 146.25 22.0001H653.75Z" fill="#60BF19"/>
<path d="M434.03 121.756C436.95 112.601 446.739 107.543 455.893 110.461C492.592 122.169 523.92 146.367 544.173 178.793C564.431 211.227 572.255 249.74 566.206 287.384C560.157 325.024 540.649 359.249 511.265 383.934C481.887 408.613 444.555 422.155 405.992 422.2C367.43 422.245 330.066 408.793 300.63 384.183C271.186 359.567 251.59 325.384 245.45 287.758C239.311 250.13 247.056 211.603 267.234 179.121C287.407 146.65 318.665 122.38 355.333 110.586C364.481 107.644 374.288 112.675 377.23 121.824C380.169 130.97 375.138 140.767 365.993 143.71C337.075 153.01 312.555 172.106 296.789 197.484C281.028 222.855 275.019 252.88 279.797 282.162C284.577 311.446 299.853 338.167 322.957 357.483C346.069 376.803 375.493 387.435 405.947 387.4C436.404 387.364 465.815 376.667 488.88 357.29C511.937 337.92 527.139 311.162 531.848 281.867C536.555 252.575 530.474 222.569 514.652 197.235C498.825 171.894 474.264 152.852 445.324 143.619C436.17 140.699 431.111 130.91 434.03 121.756ZM388.4 216.164V91.6001C388.4 81.9904 396.19 74.2001 405.8 74.2001C415.409 74.2003 423.2 81.9905 423.2 91.6001V216.164C423.2 225.774 415.409 233.564 405.8 233.564C396.19 233.564 388.4 225.774 388.4 216.164Z" fill="#F0EDE8"/>
</svg>
