<svg width="800" height="600" viewBox="0 0 800 600" fill="none" xmlns="http://www.w3.org/2000/svg">
<rect width="800" height="600" fill="white"/>
<path d="M37.2171 316.965L126.632 117.932H162.966L252.665 316.965H214.06L137.135 137.551H151.896L75.254 316.965H37.2171ZM78.3764 270.903L88.3114 241.901H195.61L205.545 270.903H78.3764Z" fill="black"/>
<path d="M270.839 316.965V156.602C270.839 140.679 275.475 127.979 284.748 118.501C294.21 108.834 307.645 104 325.055 104C331.3 104 337.167 104.663 342.655 105.99C348.332 107.317 353.063 109.402 356.847 112.246L347.196 138.973C344.547 136.888 341.519 135.371 338.113 134.424C334.707 133.286 331.206 132.718 327.61 132.718C320.23 132.718 314.647 134.803 310.862 138.973C307.078 142.954 305.185 149.019 305.185 157.17V174.23L306.321 190.153V316.965H270.839ZM245.859 194.702V166.269H346.912V194.702H245.859Z" fill="black"/>
<path d="M446.58 318.956C434.279 318.956 423.02 316.112 412.801 310.426C402.771 304.739 394.728 296.209 388.673 284.836C382.806 273.273 379.873 258.677 379.873 241.048C379.873 223.23 382.712 208.634 388.389 197.261C394.255 185.888 402.203 177.453 412.233 171.955C422.263 166.269 433.711 163.426 446.58 163.426C461.53 163.426 474.682 166.648 486.036 173.093C497.579 179.538 506.663 188.542 513.286 200.104C520.099 211.667 523.505 225.315 523.505 241.048C523.505 256.781 520.099 270.524 513.286 282.277C506.663 293.839 497.579 302.843 486.036 309.288C474.682 315.733 461.53 318.956 446.58 318.956ZM362.558 372.126V165.132H396.337V200.957L395.201 241.333L398.04 281.708V372.126H362.558ZM442.606 288.532C451.121 288.532 458.691 286.636 465.314 282.845C472.127 279.054 477.52 273.557 481.494 266.354C485.468 259.151 487.455 250.716 487.455 241.048C487.455 231.191 485.468 222.756 481.494 215.743C477.52 208.54 472.127 203.043 465.314 199.251C458.691 195.46 451.121 193.565 442.606 193.565C434.09 193.565 426.426 195.46 419.613 199.251C412.801 203.043 407.407 208.54 403.433 215.743C399.459 222.756 397.472 231.191 397.472 241.048C397.472 250.716 399.459 259.151 403.433 266.354C407.407 273.557 412.801 279.054 419.613 282.845C426.426 286.636 434.09 288.532 442.606 288.532Z" fill="black"/>
<path d="M640.089 316.965V286.257L638.102 279.718V225.979C638.102 215.553 634.979 207.497 628.734 201.81C622.489 195.934 613.027 192.996 600.349 192.996C591.833 192.996 583.412 194.323 575.085 196.977C566.948 199.631 560.041 203.327 554.364 208.066L540.455 182.191C548.592 175.936 558.243 171.292 569.408 168.259C580.762 165.037 592.495 163.426 604.606 163.426C626.558 163.426 643.495 168.733 655.417 179.348C667.528 189.774 673.584 205.981 673.584 227.969V316.965H640.089ZM592.4 318.956C581.046 318.956 571.111 317.06 562.595 313.269C554.08 309.288 547.456 303.886 542.725 297.062C538.184 290.048 535.913 282.182 535.913 273.462C535.913 264.932 537.9 257.255 541.874 250.431C546.037 243.607 552.755 238.205 562.028 234.224C571.3 230.244 583.601 228.253 598.929 228.253H642.927V251.853H601.484C589.373 251.853 581.235 253.843 577.072 257.824C572.909 261.615 570.827 266.354 570.827 272.041C570.827 278.485 573.382 283.603 578.491 287.395C583.601 291.186 590.697 293.081 599.781 293.081C608.486 293.081 616.245 291.091 623.057 287.11C630.059 283.13 635.074 277.253 638.102 269.482L644.063 290.807C640.656 299.716 634.506 306.634 625.612 311.563C616.907 316.491 605.836 318.956 592.4 318.956Z" fill="black"/>
<path d="M88.6899 496C78.0926 496 68.6306 493.788 60.3041 489.366C52.1038 484.816 45.6697 478.624 41.0018 470.789C36.3339 462.954 34 454.045 34 444.062C34 433.952 36.3339 425.043 41.0018 417.335C45.6697 409.5 52.1038 403.371 60.3041 398.948C68.6306 394.525 78.0926 392.313 88.6899 392.313C98.5303 392.313 107.172 394.335 114.616 398.379C122.185 402.297 127.925 408.11 131.836 415.818L113.669 426.433C110.642 421.631 106.92 418.093 102.504 415.818C98.2149 413.543 93.547 412.406 88.5007 412.406C82.6974 412.406 77.4618 413.67 72.7939 416.197C68.126 418.725 64.4674 422.389 61.8181 427.191C59.1687 431.867 57.844 437.491 57.844 444.062C57.844 450.633 59.1687 456.32 61.8181 461.122C64.4674 465.798 68.126 469.399 72.7939 471.926C77.4618 474.454 82.6974 475.718 88.5007 475.718C93.547 475.718 98.2149 474.58 102.504 472.306C106.92 470.031 110.642 466.493 113.669 461.69L131.836 472.306C127.925 479.888 122.185 485.764 114.616 489.934C107.172 493.978 98.5303 496 88.6899 496Z" fill="#60BF19"/>
<path d="M186.761 496C176.416 496 167.207 493.788 159.132 489.366C151.058 484.816 144.687 478.624 140.019 470.789C135.351 462.954 133.018 454.045 133.018 444.062C133.018 433.952 135.351 425.043 140.019 417.335C144.687 409.5 151.058 403.371 159.132 398.948C167.207 394.525 176.416 392.313 186.761 392.313C197.232 392.313 206.505 394.525 214.579 398.948C222.78 403.371 229.151 409.436 233.692 417.145C238.36 424.854 240.694 433.826 240.694 444.062C240.694 454.045 238.36 462.954 233.692 470.789C229.151 478.624 222.78 484.816 214.579 489.366C206.505 493.788 197.232 496 186.761 496ZM186.761 475.718C192.565 475.718 197.737 474.454 202.279 471.926C206.821 469.399 210.353 465.734 212.876 460.932C215.525 456.13 216.85 450.507 216.85 444.062C216.85 437.491 215.525 431.867 212.876 427.191C210.353 422.389 206.821 418.725 202.279 416.197C197.737 413.67 192.628 412.406 186.95 412.406C181.147 412.406 175.975 413.67 171.433 416.197C167.017 418.725 163.485 422.389 160.836 427.191C158.186 431.867 156.862 437.491 156.862 444.062C156.862 450.507 158.186 456.13 160.836 460.932C163.485 465.734 167.017 469.399 171.433 471.926C175.975 474.454 181.084 475.718 186.761 475.718Z" fill="#60BF19"/>
<path d="M311.191 392.313C319.266 392.313 326.457 393.893 332.765 397.052C339.199 400.211 344.245 405.077 347.904 411.648C351.562 418.093 353.392 426.433 353.392 436.669V494.673H329.737V439.702C329.737 430.73 327.592 424.032 323.303 419.609C319.139 415.186 313.273 412.975 305.703 412.975C300.152 412.975 295.232 414.112 290.943 416.387C286.653 418.662 283.31 422.073 280.913 426.623C278.642 431.046 277.507 436.669 277.507 443.493V494.673H253.852V393.451H276.372V420.747L272.398 412.406C275.93 405.961 281.039 401.033 287.726 397.621C294.538 394.083 302.36 392.313 311.191 392.313Z" fill="#60BF19"/>
<path d="M431.277 392.313C439.351 392.313 446.542 393.893 452.85 397.052C459.284 400.211 464.33 405.077 467.989 411.648C471.647 418.093 473.477 426.433 473.477 436.669V494.673H449.822V439.702C449.822 430.73 447.677 424.032 443.388 419.609C439.225 415.186 433.358 412.975 425.789 412.975C420.238 412.975 415.317 414.112 411.028 416.387C406.739 418.662 403.395 422.073 400.998 426.623C398.728 431.046 397.592 436.669 397.592 443.493V494.673H373.937V393.451H396.457V420.747L392.483 412.406C396.015 405.961 401.125 401.033 407.811 397.621C414.624 394.083 422.445 392.313 431.277 392.313Z" fill="#60BF19"/>
<path d="M541.706 496C530.478 496 520.637 493.788 512.185 489.366C503.858 484.816 497.361 478.624 492.693 470.789C488.152 462.954 485.881 454.045 485.881 444.062C485.881 433.952 488.088 425.043 492.504 417.335C497.046 409.5 503.228 403.371 511.049 398.948C518.997 394.525 528.018 392.313 538.11 392.313C547.951 392.313 556.719 394.462 564.415 398.758C572.11 403.055 578.166 409.121 582.581 416.956C586.997 424.79 589.205 434.015 589.205 444.631C589.205 445.642 589.142 446.779 589.016 448.043C589.016 449.306 588.953 450.507 588.826 451.644H504.615V435.911H576.337L567.064 440.839C567.19 435.026 565.992 429.908 563.468 425.485C560.945 421.063 557.476 417.587 553.06 415.06C548.771 412.533 543.788 411.269 538.11 411.269C532.307 411.269 527.198 412.533 522.782 415.06C518.493 417.587 515.086 421.126 512.563 425.675C510.166 430.098 508.968 435.342 508.968 441.408V445.199C508.968 451.265 510.356 456.636 513.131 461.311C515.907 465.987 519.817 469.589 524.864 472.116C529.91 474.643 535.713 475.907 542.274 475.907C547.951 475.907 553.06 475.023 557.602 473.253C562.144 471.484 566.181 468.704 569.713 464.913L582.392 479.509C577.851 484.816 572.11 488.923 565.172 491.83C558.359 494.61 550.537 496 541.706 496Z" fill="#60BF19"/>
<path d="M648.828 496C638.231 496 628.769 493.788 620.443 489.366C612.242 484.816 605.808 478.624 601.14 470.789C596.472 462.954 594.138 454.045 594.138 444.062C594.138 433.952 596.472 425.043 601.14 417.335C605.808 409.5 612.242 403.371 620.443 398.948C628.769 394.525 638.231 392.313 648.828 392.313C658.669 392.313 667.311 394.335 674.754 398.379C682.324 402.297 688.064 408.11 691.975 415.818L673.808 426.433C670.78 421.631 667.058 418.093 662.643 415.818C658.353 413.543 653.685 412.406 648.639 412.406C642.836 412.406 637.6 413.67 632.932 416.197C628.264 418.725 624.606 422.389 621.956 427.191C619.307 431.867 617.982 437.491 617.982 444.062C617.982 450.633 619.307 456.32 621.956 461.122C624.606 465.798 628.264 469.399 632.932 471.926C637.6 474.454 642.836 475.718 648.639 475.718C653.685 475.718 658.353 474.58 662.643 472.306C667.058 470.031 670.78 466.493 673.808 461.69L691.975 472.306C688.064 479.888 682.324 485.764 674.754 489.934C667.311 493.978 658.669 496 648.828 496Z" fill="#60BF19"/>
<path d="M742.291 496C731.189 496 722.611 493.157 716.555 487.47C710.499 481.657 707.471 473.127 707.471 461.88V371.083H731.126V461.311C731.126 466.113 732.325 469.841 734.722 472.495C737.245 475.149 740.714 476.476 745.13 476.476C750.429 476.476 754.844 475.086 758.377 472.306L765 489.176C762.225 491.451 758.818 493.157 754.781 494.294C750.744 495.431 746.581 496 742.291 496ZM690.819 413.164V394.209H758.187V413.164H690.819Z" fill="#60BF19"/>
</svg>
